<svg width="243" height="92" viewBox="0 0 243 92" fill="none" xmlns="http://www.w3.org/2000/svg">
<path d="M40.8 32.832C44.704 33.664 47.84 35.616 50.208 38.688C52.576 41.696 53.76 45.152 53.76 49.056C53.76 54.688 51.776 59.168 47.808 62.496C43.904 65.76 38.432 67.392 31.392 67.392H0V0H30.336C37.184 0 42.528 1.568 46.368 4.704C50.272 7.84 52.224 12.096 52.224 17.472C52.224 21.44 51.168 24.736 49.056 27.36C47.008 29.984 44.256 31.808 40.8 32.832ZM16.416 27.264H27.168C29.856 27.264 31.904 26.688 33.312 25.536C34.784 24.32 35.52 22.56 35.52 20.256C35.52 17.952 34.784 16.192 33.312 14.976C31.904 13.76 29.856 13.152 27.168 13.152H16.416V27.264ZM28.512 54.144C31.264 54.144 33.376 53.536 34.848 52.32C36.384 51.04 37.152 49.216 37.152 46.848C37.152 44.48 36.352 42.624 34.752 41.28C33.216 39.936 31.072 39.264 28.32 39.264H16.416V54.144H28.512ZM88.5293 0C95.633 0 101.841 1.408 107.153 4.224C112.465 7.04 116.561 11.008 119.441 16.128C122.385 21.184 123.857 27.04 123.857 33.696C123.857 40.288 122.385 46.144 119.441 51.264C116.561 56.384 112.433 60.352 107.057 63.168C101.745 65.984 95.569 67.392 88.5293 67.392H63.2813V0H88.5293ZM87.4733 53.184C93.6813 53.184 98.513 51.488 101.969 48.096C105.425 44.704 107.153 39.904 107.153 33.696C107.153 27.488 105.425 22.656 101.969 19.2C98.513 15.744 93.6813 14.016 87.4733 14.016H79.6973V53.184H87.4733ZM149.447 13.152V26.784H171.431V39.456H149.447V54.24H174.311V67.392H133.031V0H174.311V13.152H149.447Z" fill="#00DE8A"/>
<path d="M208.873 40.608L225.961 67.392H213.577L202.153 49.44L191.401 67.392H179.977L197.065 41.376L179.977 14.496H192.361L203.785 32.448L214.537 14.496H225.961L208.873 40.608Z" fill="#2A5EAC"/>
<path d="M165.044 82.666H169.916V84.164H165.044V82.666ZM165.184 86.866H170.714V88.392H163.364V78.592H170.518V80.118H165.184V86.866ZM177.335 88.392L175.417 85.802L173.485 88.392H171.553L174.465 84.598L171.679 80.916H173.625L175.459 83.366L177.293 80.916H179.183L176.383 84.57L179.309 88.392H177.335ZM184.744 80.832C185.472 80.832 186.121 80.991 186.69 81.308C187.269 81.625 187.722 82.073 188.048 82.652C188.375 83.231 188.538 83.898 188.538 84.654C188.538 85.41 188.375 86.082 188.048 86.67C187.722 87.249 187.269 87.697 186.69 88.014C186.121 88.331 185.472 88.49 184.744 88.49C183.736 88.49 182.938 88.154 182.35 87.482V91.108H180.6V80.916H182.266V81.896C182.556 81.541 182.91 81.275 183.33 81.098C183.76 80.921 184.231 80.832 184.744 80.832ZM184.548 86.992C185.192 86.992 185.72 86.777 186.13 86.348C186.55 85.919 186.76 85.354 186.76 84.654C186.76 83.954 186.55 83.389 186.13 82.96C185.72 82.531 185.192 82.316 184.548 82.316C184.128 82.316 183.75 82.414 183.414 82.61C183.078 82.797 182.812 83.067 182.616 83.422C182.42 83.777 182.322 84.187 182.322 84.654C182.322 85.121 182.42 85.531 182.616 85.886C182.812 86.241 183.078 86.516 183.414 86.712C183.75 86.899 184.128 86.992 184.548 86.992ZM193.754 87.006C194.566 87.006 195.243 86.735 195.784 86.194L196.708 87.272C196.381 87.673 195.961 87.977 195.448 88.182C194.935 88.387 194.356 88.49 193.712 88.49C192.891 88.49 192.167 88.327 191.542 88C190.917 87.673 190.431 87.221 190.086 86.642C189.75 86.054 189.582 85.391 189.582 84.654C189.582 83.926 189.745 83.273 190.072 82.694C190.408 82.106 190.865 81.649 191.444 81.322C192.032 80.995 192.695 80.832 193.432 80.832C194.132 80.832 194.767 80.986 195.336 81.294C195.915 81.593 196.372 82.027 196.708 82.596C197.044 83.156 197.212 83.814 197.212 84.57L191.486 85.69C191.663 86.119 191.948 86.446 192.34 86.67C192.732 86.894 193.203 87.006 193.754 87.006ZM193.432 82.232C192.788 82.232 192.265 82.442 191.864 82.862C191.472 83.282 191.276 83.847 191.276 84.556V84.57L195.504 83.758C195.383 83.301 195.135 82.932 194.762 82.652C194.398 82.372 193.955 82.232 193.432 82.232ZM200.559 82.008C201.063 81.224 201.95 80.832 203.219 80.832V82.498C203.07 82.47 202.935 82.456 202.813 82.456C202.132 82.456 201.6 82.657 201.217 83.058C200.835 83.45 200.643 84.019 200.643 84.766V88.392H198.893V80.916H200.559V82.008ZM204.704 80.916H206.454V88.392H204.704V80.916ZM205.586 79.684C205.268 79.684 205.002 79.586 204.788 79.39C204.573 79.185 204.466 78.933 204.466 78.634C204.466 78.335 204.573 78.088 204.788 77.892C205.002 77.687 205.268 77.584 205.586 77.584C205.903 77.584 206.169 77.682 206.384 77.878C206.598 78.065 206.706 78.303 206.706 78.592C206.706 78.9 206.598 79.161 206.384 79.376C206.178 79.581 205.912 79.684 205.586 79.684ZM212.307 87.006C213.119 87.006 213.795 86.735 214.337 86.194L215.261 87.272C214.934 87.673 214.514 87.977 214.001 88.182C213.487 88.387 212.909 88.49 212.265 88.49C211.443 88.49 210.72 88.327 210.095 88C209.469 87.673 208.984 87.221 208.639 86.642C208.303 86.054 208.135 85.391 208.135 84.654C208.135 83.926 208.298 83.273 208.625 82.694C208.961 82.106 209.418 81.649 209.997 81.322C210.585 80.995 211.247 80.832 211.985 80.832C212.685 80.832 213.319 80.986 213.889 81.294C214.467 81.593 214.925 82.027 215.261 82.596C215.597 83.156 215.765 83.814 215.765 84.57L210.039 85.69C210.216 86.119 210.501 86.446 210.893 86.67C211.285 86.894 211.756 87.006 212.307 87.006ZM211.985 82.232C211.341 82.232 210.818 82.442 210.417 82.862C210.025 83.282 209.829 83.847 209.829 84.556V84.57L214.057 83.758C213.935 83.301 213.688 82.932 213.315 82.652C212.951 82.372 212.507 82.232 211.985 82.232ZM221.688 80.832C222.631 80.832 223.387 81.107 223.956 81.658C224.525 82.209 224.81 83.025 224.81 84.108V88.392H223.06V84.332C223.06 83.679 222.906 83.189 222.598 82.862C222.29 82.526 221.851 82.358 221.282 82.358C220.638 82.358 220.129 82.554 219.756 82.946C219.383 83.329 219.196 83.884 219.196 84.612V88.392H217.446V80.916H219.112V81.882C219.401 81.537 219.765 81.275 220.204 81.098C220.643 80.921 221.137 80.832 221.688 80.832ZM230.528 88.49C229.754 88.49 229.058 88.327 228.442 88C227.826 87.673 227.346 87.221 227 86.642C226.655 86.054 226.482 85.391 226.482 84.654C226.482 83.917 226.655 83.259 227 82.68C227.346 82.101 227.822 81.649 228.428 81.322C229.044 80.995 229.744 80.832 230.528 80.832C231.266 80.832 231.91 80.981 232.46 81.28C233.02 81.579 233.44 82.008 233.72 82.568L232.376 83.352C232.162 83.007 231.891 82.75 231.564 82.582C231.247 82.405 230.897 82.316 230.514 82.316C229.861 82.316 229.32 82.531 228.89 82.96C228.461 83.38 228.246 83.945 228.246 84.654C228.246 85.363 228.456 85.933 228.876 86.362C229.306 86.782 229.852 86.992 230.514 86.992C230.897 86.992 231.247 86.908 231.564 86.74C231.891 86.563 232.162 86.301 232.376 85.956L233.72 86.74C233.431 87.3 233.006 87.734 232.446 88.042C231.896 88.341 231.256 88.49 230.528 88.49ZM238.68 87.006C239.492 87.006 240.168 86.735 240.71 86.194L241.634 87.272C241.307 87.673 240.887 87.977 240.374 88.182C239.86 88.387 239.282 88.49 238.638 88.49C237.816 88.49 237.093 88.327 236.468 88C235.842 87.673 235.357 87.221 235.012 86.642C234.676 86.054 234.508 85.391 234.508 84.654C234.508 83.926 234.671 83.273 234.998 82.694C235.334 82.106 235.791 81.649 236.37 81.322C236.958 80.995 237.62 80.832 238.358 80.832C239.058 80.832 239.692 80.986 240.262 81.294C240.84 81.593 241.298 82.027 241.634 82.596C241.97 83.156 242.138 83.814 242.138 84.57L236.412 85.69C236.589 86.119 236.874 86.446 237.266 86.67C237.658 86.894 238.129 87.006 238.68 87.006ZM238.358 82.232C237.714 82.232 237.191 82.442 236.79 82.862C236.398 83.282 236.202 83.847 236.202 84.556V84.57L240.43 83.758C240.308 83.301 240.061 82.932 239.688 82.652C239.324 82.372 238.88 82.232 238.358 82.232Z" fill="#2A5EAC"/>
<path d="M78.364 78.592H82.6479C83.6932 78.592 84.622 78.797 85.434 79.208C86.246 79.609 86.876 80.183 87.324 80.93C87.772 81.667 87.9959 82.521 87.9959 83.492C87.9959 84.463 87.772 85.321 87.324 86.068C86.876 86.805 86.246 87.379 85.434 87.79C84.622 88.191 83.6932 88.392 82.6479 88.392H78.364V78.592ZM82.5639 86.852C83.2826 86.852 83.9126 86.717 84.4539 86.446C85.0046 86.166 85.4247 85.774 85.714 85.27C86.0127 84.757 86.1619 84.164 86.1619 83.492C86.1619 82.82 86.0127 82.232 85.714 81.728C85.4247 81.215 85.0046 80.823 84.4539 80.552C83.9126 80.272 83.2826 80.132 82.5639 80.132H80.184V86.852H82.5639ZM93.3184 87.006C94.13 87.006 94.807 86.735 95.348 86.194L96.2719 87.272C95.9459 87.673 95.5259 87.977 95.0119 88.182C94.4989 88.387 93.9204 88.49 93.2764 88.49C92.4551 88.49 91.7317 88.327 91.1064 88C90.4811 87.673 89.9957 87.221 89.6504 86.642C89.3144 86.054 89.1463 85.391 89.1463 84.654C89.1463 83.926 89.3097 83.273 89.6364 82.694C89.9724 82.106 90.4297 81.649 91.0084 81.322C91.5964 80.995 92.2591 80.832 92.9964 80.832C93.6964 80.832 94.3309 80.986 94.8999 81.294C95.4789 81.593 95.9359 82.027 96.2719 82.596C96.608 83.156 96.7759 83.814 96.7759 84.57L91.0504 85.69C91.2277 86.119 91.5124 86.446 91.9044 86.67C92.2964 86.894 92.7677 87.006 93.3184 87.006ZM92.9964 82.232C92.3524 82.232 91.8297 82.442 91.4284 82.862C91.0364 83.282 90.8403 83.847 90.8403 84.556V84.57L95.0679 83.758C94.9469 83.301 94.7 82.932 94.326 82.652C93.9624 82.372 93.5191 82.232 92.9964 82.232ZM105.321 80.916L102.115 88.392H100.309L97.103 80.916H98.923L101.247 86.46L103.641 80.916H105.321ZM109.766 87.006C110.578 87.006 111.254 86.735 111.796 86.194L112.72 87.272C112.393 87.673 111.973 87.977 111.46 88.182C110.946 88.387 110.368 88.49 109.724 88.49C108.902 88.49 108.179 88.327 107.554 88C106.928 87.673 106.443 87.221 106.098 86.642C105.762 86.054 105.594 85.391 105.594 84.654C105.594 83.926 105.757 83.273 106.084 82.694C106.42 82.106 106.877 81.649 107.456 81.322C108.044 80.995 108.706 80.832 109.444 80.832C110.144 80.832 110.778 80.986 111.348 81.294C111.926 81.593 112.384 82.027 112.72 82.596C113.056 83.156 113.224 83.814 113.224 84.57L107.498 85.69C107.675 86.119 107.96 86.446 108.352 86.67C108.744 86.894 109.215 87.006 109.766 87.006ZM109.444 82.232C108.8 82.232 108.277 82.442 107.876 82.862C107.484 83.282 107.288 83.847 107.288 84.556V84.57L111.516 83.758C111.394 83.301 111.147 82.932 110.774 82.652C110.41 82.372 109.966 82.232 109.444 82.232ZM117.369 88.49C116.594 88.49 115.988 88.28 115.549 87.86C115.12 87.431 114.905 86.829 114.905 86.054V78.004H116.655V85.928C116.655 86.675 117.005 87.048 117.705 87.048C117.938 87.048 118.148 87.001 118.335 86.908L118.419 88.308C118.092 88.429 117.742 88.49 117.369 88.49ZM122.831 88.49C122.075 88.49 121.394 88.327 120.787 88C120.181 87.673 119.705 87.221 119.359 86.642C119.023 86.054 118.855 85.391 118.855 84.654C118.855 83.917 119.023 83.259 119.359 82.68C119.705 82.101 120.181 81.649 120.787 81.322C121.394 80.995 122.075 80.832 122.831 80.832C123.597 80.832 124.283 80.995 124.889 81.322C125.496 81.649 125.967 82.101 126.303 82.68C126.649 83.259 126.821 83.917 126.821 84.654C126.821 85.391 126.649 86.054 126.303 86.642C125.967 87.221 125.496 87.673 124.889 88C124.283 88.327 123.597 88.49 122.831 88.49ZM122.831 86.992C123.475 86.992 124.007 86.777 124.427 86.348C124.847 85.919 125.057 85.354 125.057 84.654C125.057 83.954 124.847 83.389 124.427 82.96C124.007 82.531 123.475 82.316 122.831 82.316C122.187 82.316 121.655 82.531 121.235 82.96C120.825 83.389 120.619 83.954 120.619 84.654C120.619 85.354 120.825 85.919 121.235 86.348C121.655 86.777 122.187 86.992 122.831 86.992ZM132.639 80.832C133.367 80.832 134.015 80.991 134.585 81.308C135.163 81.625 135.616 82.073 135.943 82.652C136.269 83.231 136.433 83.898 136.433 84.654C136.433 85.41 136.269 86.082 135.943 86.67C135.616 87.249 135.163 87.697 134.585 88.014C134.015 88.331 133.367 88.49 132.639 88.49C131.631 88.49 130.833 88.154 130.245 87.482V91.108H128.495V80.916H130.161V81.896C130.45 81.541 130.805 81.275 131.225 81.098C131.654 80.921 132.125 80.832 132.639 80.832ZM132.443 86.992C133.087 86.992 133.614 86.777 134.025 86.348C134.445 85.919 134.655 85.354 134.655 84.654C134.655 83.954 134.445 83.389 134.025 82.96C133.614 82.531 133.087 82.316 132.443 82.316C132.023 82.316 131.645 82.414 131.309 82.61C130.973 82.797 130.707 83.067 130.511 83.422C130.315 83.777 130.217 84.187 130.217 84.654C130.217 85.121 130.315 85.531 130.511 85.886C130.707 86.241 130.973 86.516 131.309 86.712C131.645 86.899 132.023 86.992 132.443 86.992ZM141.648 87.006C142.46 87.006 143.137 86.735 143.678 86.194L144.602 87.272C144.276 87.673 143.856 87.977 143.342 88.182C142.829 88.387 142.25 88.49 141.606 88.49C140.785 88.49 140.062 88.327 139.436 88C138.811 87.673 138.326 87.221 137.98 86.642C137.644 86.054 137.476 85.391 137.476 84.654C137.476 83.926 137.64 83.273 137.966 82.694C138.302 82.106 138.76 81.649 139.338 81.322C139.926 80.995 140.589 80.832 141.326 80.832C142.026 80.832 142.661 80.986 143.23 81.294C143.809 81.593 144.266 82.027 144.602 82.596C144.938 83.156 145.106 83.814 145.106 84.57L139.38 85.69C139.558 86.119 139.842 86.446 140.234 86.67C140.626 86.894 141.098 87.006 141.648 87.006ZM141.326 82.232C140.682 82.232 140.16 82.442 139.758 82.862C139.366 83.282 139.17 83.847 139.17 84.556V84.57L143.398 83.758C143.277 83.301 143.03 82.932 142.656 82.652C142.292 82.372 141.849 82.232 141.326 82.232ZM148.454 82.008C148.958 81.224 149.844 80.832 151.114 80.832V82.498C150.964 82.47 150.829 82.456 150.708 82.456C150.026 82.456 149.494 82.657 149.112 83.058C148.729 83.45 148.538 84.019 148.538 84.766V88.392H146.788V80.916H148.454V82.008Z" fill="#2A5EAC"/>
<path d="M8.30795 83.296C8.84925 83.473 9.27865 83.772 9.59595 84.192C9.91325 84.603 10.072 85.116 10.072 85.732C10.072 86.581 9.74525 87.239 9.09195 87.706C8.43865 88.163 7.48665 88.392 6.23595 88.392H1.36395V78.592H5.95595C7.11325 78.592 8.00465 78.821 8.62995 79.278C9.25525 79.726 9.56795 80.347 9.56795 81.14C9.56795 81.625 9.45595 82.055 9.23195 82.428C9.00795 82.801 8.69995 83.091 8.30795 83.296ZM3.18395 80.02V82.722H5.75995C6.39465 82.722 6.87995 82.61 7.21595 82.386C7.56125 82.153 7.73395 81.817 7.73395 81.378C7.73395 80.93 7.56125 80.594 7.21595 80.37C6.87995 80.137 6.39465 80.02 5.75995 80.02H3.18395ZM6.12395 86.964C7.53325 86.964 8.23795 86.493 8.23795 85.55C8.23795 84.607 7.53325 84.136 6.12395 84.136H3.18395V86.964H6.12395ZM15.4024 87.006C16.2144 87.006 16.8911 86.735 17.4324 86.194L18.3564 87.272C18.0297 87.673 17.6097 87.977 17.0964 88.182C16.5831 88.387 16.0044 88.49 15.3604 88.49C14.5391 88.49 13.8157 88.327 13.1904 88C12.5651 87.673 12.0797 87.221 11.7344 86.642C11.3984 86.054 11.2304 85.391 11.2304 84.654C11.2304 83.926 11.3937 83.273 11.7204 82.694C12.0564 82.106 12.5137 81.649 13.0924 81.322C13.6804 80.995 14.3431 80.832 15.0804 80.832C15.7804 80.832 16.4151 80.986 16.9844 81.294C17.5631 81.593 18.0204 82.027 18.3564 82.596C18.6924 83.156 18.8604 83.814 18.8604 84.57L13.1344 85.69C13.3117 86.119 13.5964 86.446 13.9884 86.67C14.3804 86.894 14.8517 87.006 15.4024 87.006ZM15.0804 82.232C14.4364 82.232 13.9137 82.442 13.5124 82.862C13.1204 83.282 12.9244 83.847 12.9244 84.556V84.57L17.1524 83.758C17.0311 83.301 16.7837 82.932 16.4104 82.652C16.0464 82.372 15.6031 82.232 15.0804 82.232ZM27.9617 80.916V87.258C27.9617 89.89 26.6177 91.206 23.9297 91.206C23.211 91.206 22.5297 91.113 21.8857 90.926C21.2417 90.749 20.7097 90.487 20.2897 90.142L21.0737 88.826C21.4004 89.097 21.811 89.311 22.3057 89.47C22.8097 89.638 23.3184 89.722 23.8317 89.722C24.653 89.722 25.255 89.535 25.6377 89.162C26.0204 88.789 26.2117 88.219 26.2117 87.454V87.062C25.913 87.389 25.549 87.636 25.1197 87.804C24.6904 87.972 24.219 88.056 23.7057 88.056C22.9964 88.056 22.3524 87.907 21.7737 87.608C21.2044 87.3 20.7517 86.871 20.4157 86.32C20.089 85.769 19.9257 85.139 19.9257 84.43C19.9257 83.721 20.089 83.095 20.4157 82.554C20.7517 82.003 21.2044 81.579 21.7737 81.28C22.3524 80.981 22.9964 80.832 23.7057 80.832C24.247 80.832 24.737 80.921 25.1757 81.098C25.6237 81.275 25.997 81.546 26.2957 81.91V80.916H27.9617ZM23.9717 86.572C24.6344 86.572 25.1757 86.376 25.5957 85.984C26.025 85.583 26.2397 85.065 26.2397 84.43C26.2397 83.805 26.025 83.296 25.5957 82.904C25.1757 82.512 24.6344 82.316 23.9717 82.316C23.2997 82.316 22.749 82.512 22.3197 82.904C21.8997 83.296 21.6897 83.805 21.6897 84.43C21.6897 85.065 21.8997 85.583 22.3197 85.984C22.749 86.376 23.2997 86.572 23.9717 86.572ZM30.2624 80.916H32.0124V88.392H30.2624V80.916ZM31.1444 79.684C30.8271 79.684 30.5611 79.586 30.3464 79.39C30.1317 79.185 30.0244 78.933 30.0244 78.634C30.0244 78.335 30.1317 78.088 30.3464 77.892C30.5611 77.687 30.8271 77.584 31.1444 77.584C31.4617 77.584 31.7277 77.682 31.9424 77.878C32.1571 78.065 32.2644 78.303 32.2644 78.592C32.2644 78.9 32.1571 79.161 31.9424 79.376C31.7371 79.581 31.4711 79.684 31.1444 79.684ZM38.5513 80.832C39.4939 80.832 40.2499 81.107 40.8193 81.658C41.3886 82.209 41.6733 83.025 41.6733 84.108V88.392H39.9233V84.332C39.9233 83.679 39.7692 83.189 39.4613 82.862C39.1533 82.526 38.7146 82.358 38.1453 82.358C37.5013 82.358 36.9926 82.554 36.6193 82.946C36.2459 83.329 36.0592 83.884 36.0592 84.612V88.392H34.3092V80.916H35.9753V81.882C36.2645 81.537 36.6286 81.275 37.0673 81.098C37.5059 80.921 38.0006 80.832 38.5513 80.832ZM48.1353 80.832C49.0779 80.832 49.8339 81.107 50.4033 81.658C50.9726 82.209 51.2573 83.025 51.2573 84.108V88.392H49.5073V84.332C49.5073 83.679 49.3532 83.189 49.0452 82.862C48.7373 82.526 48.2986 82.358 47.7293 82.358C47.0853 82.358 46.5766 82.554 46.2033 82.946C45.8299 83.329 45.6432 83.884 45.6432 84.612V88.392H43.8932V80.916H45.5592V81.882C45.8485 81.537 46.2126 81.275 46.6513 81.098C47.0899 80.921 47.5846 80.832 48.1353 80.832ZM57.1016 87.006C57.9136 87.006 58.5903 86.735 59.1316 86.194L60.0555 87.272C59.7289 87.673 59.3088 87.977 58.7955 88.182C58.2822 88.387 57.7036 88.49 57.0596 88.49C56.2383 88.49 55.5149 88.327 54.8895 88C54.2642 87.673 53.7789 87.221 53.4336 86.642C53.0976 86.054 52.9296 85.391 52.9296 84.654C52.9296 83.926 53.0929 83.273 53.4196 82.694C53.7556 82.106 54.2128 81.649 54.7915 81.322C55.3796 80.995 56.0423 80.832 56.7796 80.832C57.4796 80.832 58.1142 80.986 58.6835 81.294C59.2622 81.593 59.7196 82.027 60.0555 82.596C60.3915 83.156 60.5595 83.814 60.5595 84.57L54.8335 85.69C55.0108 86.119 55.2956 86.446 55.6876 86.67C56.0796 86.894 56.5509 87.006 57.1016 87.006ZM56.7796 82.232C56.1356 82.232 55.6129 82.442 55.2116 82.862C54.8196 83.282 54.6236 83.847 54.6236 84.556V84.57L58.8515 83.758C58.7302 83.301 58.4828 82.932 58.1096 82.652C57.7456 82.372 57.3023 82.232 56.7796 82.232ZM63.9069 82.008C64.4109 81.224 65.2976 80.832 66.5668 80.832V82.498C66.4175 82.47 66.2822 82.456 66.1609 82.456C65.4796 82.456 64.9476 82.657 64.5648 83.058C64.1823 83.45 63.9909 84.019 63.9909 84.766V88.392H62.2409V80.916H63.9069V82.008Z" fill="#2A5EAC"/>
</svg>
