<svg width="249" height="144" viewBox="0 0 249 144" fill="none" xmlns="http://www.w3.org/2000/svg">
<path d="M46.752 71.44C50.656 72.272 53.792 74.224 56.16 77.296C58.528 80.304 59.712 83.76 59.712 87.664C59.712 93.296 57.728 97.776 53.76 101.104C49.856 104.368 44.384 106 37.344 106H5.952V38.608H36.288C43.136 38.608 48.48 40.176 52.32 43.312C56.224 46.448 58.176 50.704 58.176 56.08C58.176 60.048 57.12 63.344 55.008 65.968C52.96 68.592 50.208 70.416 46.752 71.44ZM22.368 65.872H33.12C35.808 65.872 37.856 65.296 39.264 64.144C40.736 62.928 41.472 61.168 41.472 58.864C41.472 56.56 40.736 54.8 39.264 53.584C37.856 52.368 35.808 51.76 33.12 51.76H22.368V65.872ZM34.464 92.752C37.216 92.752 39.328 92.144 40.8 90.928C42.336 89.648 43.104 87.824 43.104 85.456C43.104 83.088 42.304 81.232 40.704 79.888C39.168 78.544 37.024 77.872 34.272 77.872H22.368V92.752H34.464ZM94.4813 38.608C101.585 38.608 107.793 40.016 113.105 42.832C118.417 45.648 122.513 49.616 125.393 54.736C128.337 59.792 129.809 65.648 129.809 72.304C129.809 78.896 128.337 84.752 125.393 89.872C122.513 94.992 118.385 98.96 113.009 101.776C107.697 104.592 101.521 106 94.4813 106H69.2333V38.608H94.4813ZM93.4253 91.792C99.6333 91.792 104.465 90.096 107.921 86.704C111.377 83.312 113.105 78.512 113.105 72.304C113.105 66.096 111.377 61.264 107.921 57.808C104.465 54.352 99.6333 52.624 93.4253 52.624H85.6493V91.792H93.4253ZM155.399 51.76V65.392H177.383V78.064H155.399V92.848H180.263V106H138.983V38.608H180.263V51.76H155.399Z" fill="#00DE8A"/>
<path d="M214.825 79.216L231.913 106H219.529L208.105 88.048L197.353 106H185.929L203.017 79.984L185.929 53.104H198.313L209.737 71.056L220.489 53.104H231.913L214.825 79.216Z" fill="#2A5EAC"/>
<path d="M170.996 121.274H175.868V122.772H170.996V121.274ZM171.136 125.474H176.666V127H169.316V117.2H176.47V118.726H171.136V125.474ZM183.287 127L181.369 124.41L179.437 127H177.505L180.417 123.206L177.631 119.524H179.577L181.411 121.974L183.245 119.524H185.135L182.335 123.178L185.261 127H183.287ZM190.696 119.44C191.424 119.44 192.073 119.599 192.642 119.916C193.221 120.233 193.674 120.681 194 121.26C194.327 121.839 194.49 122.506 194.49 123.262C194.49 124.018 194.327 124.69 194 125.278C193.674 125.857 193.221 126.305 192.642 126.622C192.073 126.939 191.424 127.098 190.696 127.098C189.688 127.098 188.89 126.762 188.302 126.09V129.716H186.552V119.524H188.218V120.504C188.508 120.149 188.862 119.883 189.282 119.706C189.712 119.529 190.183 119.44 190.696 119.44ZM190.5 125.6C191.144 125.6 191.672 125.385 192.082 124.956C192.502 124.527 192.712 123.962 192.712 123.262C192.712 122.562 192.502 121.997 192.082 121.568C191.672 121.139 191.144 120.924 190.5 120.924C190.08 120.924 189.702 121.022 189.366 121.218C189.03 121.405 188.764 121.675 188.568 122.03C188.372 122.385 188.274 122.795 188.274 123.262C188.274 123.729 188.372 124.139 188.568 124.494C188.764 124.849 189.03 125.124 189.366 125.32C189.702 125.507 190.08 125.6 190.5 125.6ZM199.706 125.614C200.518 125.614 201.195 125.343 201.736 124.802L202.66 125.88C202.333 126.281 201.913 126.585 201.4 126.79C200.887 126.995 200.308 127.098 199.664 127.098C198.843 127.098 198.119 126.935 197.494 126.608C196.869 126.281 196.383 125.829 196.038 125.25C195.702 124.662 195.534 123.999 195.534 123.262C195.534 122.534 195.697 121.881 196.024 121.302C196.36 120.714 196.817 120.257 197.396 119.93C197.984 119.603 198.647 119.44 199.384 119.44C200.084 119.44 200.719 119.594 201.288 119.902C201.867 120.201 202.324 120.635 202.66 121.204C202.996 121.764 203.164 122.422 203.164 123.178L197.438 124.298C197.615 124.727 197.9 125.054 198.292 125.278C198.684 125.502 199.155 125.614 199.706 125.614ZM199.384 120.84C198.74 120.84 198.217 121.05 197.816 121.47C197.424 121.89 197.228 122.455 197.228 123.164V123.178L201.456 122.366C201.335 121.909 201.087 121.54 200.714 121.26C200.35 120.98 199.907 120.84 199.384 120.84ZM206.511 120.616C207.015 119.832 207.902 119.44 209.171 119.44V121.106C209.022 121.078 208.887 121.064 208.765 121.064C208.084 121.064 207.552 121.265 207.169 121.666C206.787 122.058 206.595 122.627 206.595 123.374V127H204.845V119.524H206.511V120.616ZM210.656 119.524H212.406V127H210.656V119.524ZM211.538 118.292C211.22 118.292 210.954 118.194 210.74 117.998C210.525 117.793 210.418 117.541 210.418 117.242C210.418 116.943 210.525 116.696 210.74 116.5C210.954 116.295 211.22 116.192 211.538 116.192C211.855 116.192 212.121 116.29 212.336 116.486C212.55 116.673 212.658 116.911 212.658 117.2C212.658 117.508 212.55 117.769 212.336 117.984C212.13 118.189 211.864 118.292 211.538 118.292ZM218.259 125.614C219.071 125.614 219.747 125.343 220.289 124.802L221.213 125.88C220.886 126.281 220.466 126.585 219.953 126.79C219.439 126.995 218.861 127.098 218.217 127.098C217.395 127.098 216.672 126.935 216.047 126.608C215.421 126.281 214.936 125.829 214.591 125.25C214.255 124.662 214.087 123.999 214.087 123.262C214.087 122.534 214.25 121.881 214.577 121.302C214.913 120.714 215.37 120.257 215.949 119.93C216.537 119.603 217.199 119.44 217.937 119.44C218.637 119.44 219.271 119.594 219.841 119.902C220.419 120.201 220.877 120.635 221.213 121.204C221.549 121.764 221.717 122.422 221.717 123.178L215.991 124.298C216.168 124.727 216.453 125.054 216.845 125.278C217.237 125.502 217.708 125.614 218.259 125.614ZM217.937 120.84C217.293 120.84 216.77 121.05 216.369 121.47C215.977 121.89 215.781 122.455 215.781 123.164V123.178L220.009 122.366C219.887 121.909 219.64 121.54 219.267 121.26C218.903 120.98 218.459 120.84 217.937 120.84ZM227.64 119.44C228.583 119.44 229.339 119.715 229.908 120.266C230.477 120.817 230.762 121.633 230.762 122.716V127H229.012V122.94C229.012 122.287 228.858 121.797 228.55 121.47C228.242 121.134 227.803 120.966 227.234 120.966C226.59 120.966 226.081 121.162 225.708 121.554C225.335 121.937 225.148 122.492 225.148 123.22V127H223.398V119.524H225.064V120.49C225.353 120.145 225.717 119.883 226.156 119.706C226.595 119.529 227.089 119.44 227.64 119.44ZM236.48 127.098C235.706 127.098 235.01 126.935 234.394 126.608C233.778 126.281 233.298 125.829 232.952 125.25C232.607 124.662 232.434 123.999 232.434 123.262C232.434 122.525 232.607 121.867 232.952 121.288C233.298 120.709 233.774 120.257 234.38 119.93C234.996 119.603 235.696 119.44 236.48 119.44C237.218 119.44 237.862 119.589 238.412 119.888C238.972 120.187 239.392 120.616 239.672 121.176L238.328 121.96C238.114 121.615 237.843 121.358 237.516 121.19C237.199 121.013 236.849 120.924 236.466 120.924C235.813 120.924 235.272 121.139 234.842 121.568C234.413 121.988 234.198 122.553 234.198 123.262C234.198 123.971 234.408 124.541 234.828 124.97C235.258 125.39 235.804 125.6 236.466 125.6C236.849 125.6 237.199 125.516 237.516 125.348C237.843 125.171 238.114 124.909 238.328 124.564L239.672 125.348C239.383 125.908 238.958 126.342 238.398 126.65C237.848 126.949 237.208 127.098 236.48 127.098ZM244.632 125.614C245.444 125.614 246.12 125.343 246.662 124.802L247.586 125.88C247.259 126.281 246.839 126.585 246.326 126.79C245.812 126.995 245.234 127.098 244.59 127.098C243.768 127.098 243.045 126.935 242.42 126.608C241.794 126.281 241.309 125.829 240.964 125.25C240.628 124.662 240.46 123.999 240.46 123.262C240.46 122.534 240.623 121.881 240.95 121.302C241.286 120.714 241.743 120.257 242.322 119.93C242.91 119.603 243.572 119.44 244.31 119.44C245.01 119.44 245.644 119.594 246.214 119.902C246.792 120.201 247.25 120.635 247.586 121.204C247.922 121.764 248.09 122.422 248.09 123.178L242.364 124.298C242.541 124.727 242.826 125.054 243.218 125.278C243.61 125.502 244.081 125.614 244.632 125.614ZM244.31 120.84C243.666 120.84 243.143 121.05 242.742 121.47C242.35 121.89 242.154 122.455 242.154 123.164V123.178L246.382 122.366C246.26 121.909 246.013 121.54 245.64 121.26C245.276 120.98 244.832 120.84 244.31 120.84Z" fill="#2A5EAC"/>
<path d="M84.316 117.2H88.6C89.6453 117.2 90.574 117.405 91.386 117.816C92.198 118.217 92.828 118.791 93.276 119.538C93.724 120.275 93.948 121.129 93.948 122.1C93.948 123.071 93.724 123.929 93.276 124.676C92.828 125.413 92.198 125.987 91.386 126.398C90.574 126.799 89.6453 127 88.6 127H84.316V117.2ZM88.516 125.46C89.2347 125.46 89.8647 125.325 90.406 125.054C90.9567 124.774 91.3767 124.382 91.666 123.878C91.9647 123.365 92.114 122.772 92.114 122.1C92.114 121.428 91.9647 120.84 91.666 120.336C91.3767 119.823 90.9567 119.431 90.406 119.16C89.8647 118.88 89.2347 118.74 88.516 118.74H86.136V125.46H88.516ZM99.2704 125.614C100.082 125.614 100.759 125.343 101.3 124.802L102.224 125.88C101.898 126.281 101.478 126.585 100.964 126.79C100.451 126.995 99.8724 127.098 99.2284 127.098C98.4071 127.098 97.6837 126.935 97.0584 126.608C96.4331 126.281 95.9477 125.829 95.6024 125.25C95.2664 124.662 95.0984 123.999 95.0984 123.262C95.0984 122.534 95.2617 121.881 95.5884 121.302C95.9244 120.714 96.3817 120.257 96.9604 119.93C97.5484 119.603 98.2111 119.44 98.9484 119.44C99.6484 119.44 100.283 119.594 100.852 119.902C101.431 120.201 101.888 120.635 102.224 121.204C102.56 121.764 102.728 122.422 102.728 123.178L97.0024 124.298C97.1797 124.727 97.4644 125.054 97.8564 125.278C98.2484 125.502 98.7197 125.614 99.2704 125.614ZM98.9484 120.84C98.3044 120.84 97.7817 121.05 97.3804 121.47C96.9884 121.89 96.7924 122.455 96.7924 123.164V123.178L101.02 122.366C100.899 121.909 100.652 121.54 100.278 121.26C99.9144 120.98 99.4711 120.84 98.9484 120.84ZM111.273 119.524L108.067 127H106.261L103.055 119.524H104.875L107.199 125.068L109.593 119.524H111.273ZM115.718 125.614C116.53 125.614 117.206 125.343 117.748 124.802L118.672 125.88C118.345 126.281 117.925 126.585 117.412 126.79C116.898 126.995 116.32 127.098 115.676 127.098C114.854 127.098 114.131 126.935 113.506 126.608C112.88 126.281 112.395 125.829 112.05 125.25C111.714 124.662 111.546 123.999 111.546 123.262C111.546 122.534 111.709 121.881 112.036 121.302C112.372 120.714 112.829 120.257 113.408 119.93C113.996 119.603 114.658 119.44 115.396 119.44C116.096 119.44 116.73 119.594 117.3 119.902C117.878 120.201 118.336 120.635 118.672 121.204C119.008 121.764 119.176 122.422 119.176 123.178L113.45 124.298C113.627 124.727 113.912 125.054 114.304 125.278C114.696 125.502 115.167 125.614 115.718 125.614ZM115.396 120.84C114.752 120.84 114.229 121.05 113.828 121.47C113.436 121.89 113.24 122.455 113.24 123.164V123.178L117.468 122.366C117.346 121.909 117.099 121.54 116.726 121.26C116.362 120.98 115.918 120.84 115.396 120.84ZM123.321 127.098C122.546 127.098 121.94 126.888 121.501 126.468C121.072 126.039 120.857 125.437 120.857 124.662V116.612H122.607V124.536C122.607 125.283 122.957 125.656 123.657 125.656C123.89 125.656 124.1 125.609 124.287 125.516L124.371 126.916C124.044 127.037 123.694 127.098 123.321 127.098ZM128.783 127.098C128.027 127.098 127.346 126.935 126.739 126.608C126.133 126.281 125.657 125.829 125.311 125.25C124.975 124.662 124.807 123.999 124.807 123.262C124.807 122.525 124.975 121.867 125.311 121.288C125.657 120.709 126.133 120.257 126.739 119.93C127.346 119.603 128.027 119.44 128.783 119.44C129.549 119.44 130.235 119.603 130.841 119.93C131.448 120.257 131.919 120.709 132.255 121.288C132.601 121.867 132.773 122.525 132.773 123.262C132.773 123.999 132.601 124.662 132.255 125.25C131.919 125.829 131.448 126.281 130.841 126.608C130.235 126.935 129.549 127.098 128.783 127.098ZM128.783 125.6C129.427 125.6 129.959 125.385 130.379 124.956C130.799 124.527 131.009 123.962 131.009 123.262C131.009 122.562 130.799 121.997 130.379 121.568C129.959 121.139 129.427 120.924 128.783 120.924C128.139 120.924 127.607 121.139 127.187 121.568C126.777 121.997 126.571 122.562 126.571 123.262C126.571 123.962 126.777 124.527 127.187 124.956C127.607 125.385 128.139 125.6 128.783 125.6ZM138.591 119.44C139.319 119.44 139.967 119.599 140.537 119.916C141.115 120.233 141.568 120.681 141.895 121.26C142.221 121.839 142.385 122.506 142.385 123.262C142.385 124.018 142.221 124.69 141.895 125.278C141.568 125.857 141.115 126.305 140.537 126.622C139.967 126.939 139.319 127.098 138.591 127.098C137.583 127.098 136.785 126.762 136.197 126.09V129.716H134.447V119.524H136.113V120.504C136.402 120.149 136.757 119.883 137.177 119.706C137.606 119.529 138.077 119.44 138.591 119.44ZM138.395 125.6C139.039 125.6 139.566 125.385 139.977 124.956C140.397 124.527 140.607 123.962 140.607 123.262C140.607 122.562 140.397 121.997 139.977 121.568C139.566 121.139 139.039 120.924 138.395 120.924C137.975 120.924 137.597 121.022 137.261 121.218C136.925 121.405 136.659 121.675 136.463 122.03C136.267 122.385 136.169 122.795 136.169 123.262C136.169 123.729 136.267 124.139 136.463 124.494C136.659 124.849 136.925 125.124 137.261 125.32C137.597 125.507 137.975 125.6 138.395 125.6ZM147.6 125.614C148.412 125.614 149.089 125.343 149.63 124.802L150.554 125.88C150.228 126.281 149.808 126.585 149.294 126.79C148.781 126.995 148.202 127.098 147.558 127.098C146.737 127.098 146.014 126.935 145.388 126.608C144.763 126.281 144.278 125.829 143.932 125.25C143.596 124.662 143.428 123.999 143.428 123.262C143.428 122.534 143.592 121.881 143.918 121.302C144.254 120.714 144.712 120.257 145.29 119.93C145.878 119.603 146.541 119.44 147.278 119.44C147.978 119.44 148.613 119.594 149.182 119.902C149.761 120.201 150.218 120.635 150.554 121.204C150.89 121.764 151.058 122.422 151.058 123.178L145.332 124.298C145.51 124.727 145.794 125.054 146.186 125.278C146.578 125.502 147.05 125.614 147.6 125.614ZM147.278 120.84C146.634 120.84 146.112 121.05 145.71 121.47C145.318 121.89 145.122 122.455 145.122 123.164V123.178L149.35 122.366C149.229 121.909 148.982 121.54 148.608 121.26C148.244 120.98 147.801 120.84 147.278 120.84ZM154.406 120.616C154.91 119.832 155.796 119.44 157.066 119.44V121.106C156.916 121.078 156.781 121.064 156.66 121.064C155.978 121.064 155.446 121.265 155.064 121.666C154.681 122.058 154.49 122.627 154.49 123.374V127H152.74V119.524H154.406V120.616Z" fill="#2A5EAC"/>
<path d="M14.26 121.904C14.8013 122.081 15.2307 122.38 15.548 122.8C15.8653 123.211 16.024 123.724 16.024 124.34C16.024 125.189 15.6973 125.847 15.044 126.314C14.3907 126.771 13.4387 127 12.188 127H7.316V117.2H11.908C13.0653 117.2 13.9567 117.429 14.582 117.886C15.2073 118.334 15.52 118.955 15.52 119.748C15.52 120.233 15.408 120.663 15.184 121.036C14.96 121.409 14.652 121.699 14.26 121.904ZM9.136 118.628V121.33H11.712C12.3467 121.33 12.832 121.218 13.168 120.994C13.5133 120.761 13.686 120.425 13.686 119.986C13.686 119.538 13.5133 119.202 13.168 118.978C12.832 118.745 12.3467 118.628 11.712 118.628H9.136ZM12.076 125.572C13.4853 125.572 14.19 125.101 14.19 124.158C14.19 123.215 13.4853 122.744 12.076 122.744H9.136V125.572H12.076ZM21.3544 125.614C22.1664 125.614 22.8431 125.343 23.3844 124.802L24.3084 125.88C23.9817 126.281 23.5617 126.585 23.0484 126.79C22.5351 126.995 21.9564 127.098 21.3124 127.098C20.4911 127.098 19.7677 126.935 19.1424 126.608C18.5171 126.281 18.0317 125.829 17.6864 125.25C17.3504 124.662 17.1824 123.999 17.1824 123.262C17.1824 122.534 17.3457 121.881 17.6724 121.302C18.0084 120.714 18.4657 120.257 19.0444 119.93C19.6324 119.603 20.2951 119.44 21.0324 119.44C21.7324 119.44 22.3671 119.594 22.9364 119.902C23.5151 120.201 23.9724 120.635 24.3084 121.204C24.6444 121.764 24.8124 122.422 24.8124 123.178L19.0864 124.298C19.2637 124.727 19.5484 125.054 19.9404 125.278C20.3324 125.502 20.8037 125.614 21.3544 125.614ZM21.0324 120.84C20.3884 120.84 19.8657 121.05 19.4644 121.47C19.0724 121.89 18.8764 122.455 18.8764 123.164V123.178L23.1044 122.366C22.9831 121.909 22.7357 121.54 22.3624 121.26C21.9984 120.98 21.5551 120.84 21.0324 120.84ZM33.9137 119.524V125.866C33.9137 128.498 32.5697 129.814 29.8817 129.814C29.163 129.814 28.4817 129.721 27.8377 129.534C27.1937 129.357 26.6617 129.095 26.2417 128.75L27.0257 127.434C27.3524 127.705 27.763 127.919 28.2577 128.078C28.7617 128.246 29.2704 128.33 29.7837 128.33C30.605 128.33 31.207 128.143 31.5897 127.77C31.9724 127.397 32.1637 126.827 32.1637 126.062V125.67C31.865 125.997 31.501 126.244 31.0717 126.412C30.6424 126.58 30.171 126.664 29.6577 126.664C28.9484 126.664 28.3044 126.515 27.7257 126.216C27.1564 125.908 26.7037 125.479 26.3677 124.928C26.041 124.377 25.8777 123.747 25.8777 123.038C25.8777 122.329 26.041 121.703 26.3677 121.162C26.7037 120.611 27.1564 120.187 27.7257 119.888C28.3044 119.589 28.9484 119.44 29.6577 119.44C30.199 119.44 30.689 119.529 31.1277 119.706C31.5757 119.883 31.949 120.154 32.2477 120.518V119.524H33.9137ZM29.9237 125.18C30.5864 125.18 31.1277 124.984 31.5477 124.592C31.977 124.191 32.1917 123.673 32.1917 123.038C32.1917 122.413 31.977 121.904 31.5477 121.512C31.1277 121.12 30.5864 120.924 29.9237 120.924C29.2517 120.924 28.701 121.12 28.2717 121.512C27.8517 121.904 27.6417 122.413 27.6417 123.038C27.6417 123.673 27.8517 124.191 28.2717 124.592C28.701 124.984 29.2517 125.18 29.9237 125.18ZM36.2144 119.524H37.9644V127H36.2144V119.524ZM37.0964 118.292C36.7791 118.292 36.5131 118.194 36.2984 117.998C36.0837 117.793 35.9764 117.541 35.9764 117.242C35.9764 116.943 36.0837 116.696 36.2984 116.5C36.5131 116.295 36.7791 116.192 37.0964 116.192C37.4137 116.192 37.6797 116.29 37.8944 116.486C38.1091 116.673 38.2164 116.911 38.2164 117.2C38.2164 117.508 38.1091 117.769 37.8944 117.984C37.6891 118.189 37.4231 118.292 37.0964 118.292ZM44.5033 119.44C45.4459 119.44 46.2019 119.715 46.7713 120.266C47.3406 120.817 47.6253 121.633 47.6253 122.716V127H45.8753V122.94C45.8753 122.287 45.7213 121.797 45.4133 121.47C45.1053 121.134 44.6666 120.966 44.0973 120.966C43.4533 120.966 42.9446 121.162 42.5713 121.554C42.1979 121.937 42.0113 122.492 42.0113 123.22V127H40.2613V119.524H41.9273V120.49C42.2166 120.145 42.5806 119.883 43.0193 119.706C43.4579 119.529 43.9526 119.44 44.5033 119.44ZM54.0873 119.44C55.0299 119.44 55.7859 119.715 56.3553 120.266C56.9246 120.817 57.2093 121.633 57.2093 122.716V127H55.4593V122.94C55.4593 122.287 55.3053 121.797 54.9973 121.47C54.6893 121.134 54.2506 120.966 53.6813 120.966C53.0373 120.966 52.5286 121.162 52.1553 121.554C51.7819 121.937 51.5953 122.492 51.5953 123.22V127H49.8453V119.524H51.5113V120.49C51.8006 120.145 52.1646 119.883 52.6033 119.706C53.0419 119.529 53.5366 119.44 54.0873 119.44ZM63.0536 125.614C63.8656 125.614 64.5423 125.343 65.0836 124.802L66.0076 125.88C65.6809 126.281 65.2609 126.585 64.7476 126.79C64.2343 126.995 63.6556 127.098 63.0116 127.098C62.1903 127.098 61.4669 126.935 60.8416 126.608C60.2163 126.281 59.7309 125.829 59.3856 125.25C59.0496 124.662 58.8816 123.999 58.8816 123.262C58.8816 122.534 59.0449 121.881 59.3716 121.302C59.7076 120.714 60.1649 120.257 60.7436 119.93C61.3316 119.603 61.9943 119.44 62.7316 119.44C63.4316 119.44 64.0663 119.594 64.6356 119.902C65.2143 120.201 65.6716 120.635 66.0076 121.204C66.3436 121.764 66.5116 122.422 66.5116 123.178L60.7856 124.298C60.9629 124.727 61.2476 125.054 61.6396 125.278C62.0316 125.502 62.5029 125.614 63.0536 125.614ZM62.7316 120.84C62.0876 120.84 61.5649 121.05 61.1636 121.47C60.7716 121.89 60.5756 122.455 60.5756 123.164V123.178L64.8036 122.366C64.6823 121.909 64.4349 121.54 64.0616 121.26C63.6976 120.98 63.2543 120.84 62.7316 120.84ZM69.8589 120.616C70.3629 119.832 71.2496 119.44 72.5189 119.44V121.106C72.3696 121.078 72.2343 121.064 72.1129 121.064C71.4316 121.064 70.8996 121.265 70.5169 121.666C70.1343 122.058 69.9429 122.627 69.9429 123.374V127H68.1929V119.524H69.8589V120.616Z" fill="#2A5EAC"/>
</svg>
