<svg width="273" height="316" viewBox="0 0 273 316" fill="none" xmlns="http://www.w3.org/2000/svg">
<g id="v2">
<path id="Vector" d="M18.5719 171.884C13.9328 189.626 4.55364 225.485 21.7656 255.087C37.7798 282.621 67.5714 288.871 80.0136 291.478C90.8233 293.748 128.518 301.651 147.506 279.261C153.866 271.76 153.302 266.548 161.011 226.569C168.85 185.905 172.903 165.418 179.238 157.943C197.184 136.752 217.773 151.474 241.503 128.989C256.257 115.005 268.73 89.9457 264.102 69.0102C257.22 37.8907 214.67 25.6256 190.003 23.7128C115.674 17.9512 39.11 93.3645 18.5719 171.884Z" fill="#00DE8A"/>
<g id="Vector_2" filter="url(#filter0_i_6_55)">
<path d="M46.27 165.815C42.9553 178.492 36.2537 204.114 48.552 225.266C59.9945 244.939 81.2812 249.405 90.1714 251.268C97.8952 252.889 124.829 258.536 138.396 242.538C142.941 237.178 142.538 233.454 148.046 204.888C153.647 175.833 156.543 161.195 161.07 155.854C173.892 140.712 188.603 151.231 205.559 135.166C216.101 125.173 225.013 107.268 221.707 92.3093C216.789 70.0737 186.386 61.3101 168.761 59.9433C115.651 55.8265 60.9449 109.711 46.27 165.815Z" fill="#00DE8A"/>
</g>
<g id="Vector_3" filter="url(#filter1_i_6_55)">
<path d="M69.8076 155.515C67.6075 163.929 63.1595 180.935 71.3222 194.974C78.9168 208.031 93.0453 210.995 98.9459 212.232C104.072 213.308 121.949 217.056 130.954 206.438C133.97 202.88 133.703 200.409 137.358 181.449C141.076 162.164 142.998 152.448 146.003 148.904C154.513 138.854 164.277 145.835 175.531 135.172C182.528 128.54 188.443 116.656 186.249 106.728C182.985 91.9694 162.806 86.1528 151.108 85.2456C115.858 82.5132 79.5477 118.278 69.8076 155.515Z" fill="#00DE8A"/>
</g>
</g>
<defs>
<filter id="filter0_i_6_55" x="41.4457" y="59.7216" width="183.961" height="198.842" filterUnits="userSpaceOnUse" color-interpolation-filters="sRGB">
<feFlood flood-opacity="0" result="BackgroundImageFix"/>
<feBlend mode="normal" in="SourceGraphic" in2="BackgroundImageFix" result="shape"/>
<feColorMatrix in="SourceAlpha" type="matrix" values="0 0 0 0 0 0 0 0 0 0 0 0 0 0 0 0 0 0 127 0" result="hardAlpha"/>
<feMorphology radius="4" operator="erode" in="SourceAlpha" result="effect1_innerShadow_6_55"/>
<feOffset dx="3" dy="5"/>
<feGaussianBlur stdDeviation="5.15"/>
<feComposite in2="hardAlpha" operator="arithmetic" k2="-1" k3="1"/>
<feColorMatrix type="matrix" values="0 0 0 0 0 0 0 0 0 0 0 0 0 0 0 0 0 0 0.25 0"/>
<feBlend mode="normal" in2="shape" result="effect1_innerShadow_6_55"/>
</filter>
<filter id="filter1_i_6_55" x="66.6056" y="85.0985" width="123.108" height="133.657" filterUnits="userSpaceOnUse" color-interpolation-filters="sRGB">
<feFlood flood-opacity="0" result="BackgroundImageFix"/>
<feBlend mode="normal" in="SourceGraphic" in2="BackgroundImageFix" result="shape"/>
<feColorMatrix in="SourceAlpha" type="matrix" values="0 0 0 0 0 0 0 0 0 0 0 0 0 0 0 0 0 0 127 0" result="hardAlpha"/>
<feMorphology radius="4" operator="erode" in="SourceAlpha" result="effect1_innerShadow_6_55"/>
<feOffset dx="3" dy="5"/>
<feGaussianBlur stdDeviation="5.15"/>
<feComposite in2="hardAlpha" operator="arithmetic" k2="-1" k3="1"/>
<feColorMatrix type="matrix" values="0 0 0 0 0 0 0 0 0 0 0 0 0 0 0 0 0 0 0.25 0"/>
<feBlend mode="normal" in2="shape" result="effect1_innerShadow_6_55"/>
</filter>
</defs>
</svg>
